<?xml version="1.0" encoding="utf-8"?>
<!-- Generator: Adobe Illustrator 25.4.1, SVG Export Plug-In . SVG Version: 6.00 Build 0)  -->
<svg version="1.1" id="MAIN_GRAPHICS_copy" xmlns="http://www.w3.org/2000/svg" xmlns:xlink="http://www.w3.org/1999/xlink" x="0px"
	 y="0px" width="820px" height="642.376px" viewBox="0 0 820 642.376" style="enable-background:new 0 0 820 642.376;"
	 xml:space="preserve">
<style type="text/css">
	.st0{fill:#333333;}
	.st1{fill:#FFFFFF;}
	.st2{fill:url(#SVGID_1_);}
	.st3{fill:url(#SVGID_00000101085477807202714460000011444513040445602690_);}
	.st4{fill:url(#SVGID_00000017503414877221243100000005513226250464550321_);}
	.st5{fill:url(#SVGID_00000111158564115730430000000017636327718039706768_);}
	.st6{fill:url(#SVGID_00000018932388692145631800000006950602381315204755_);}
	.st7{fill:url(#SVGID_00000147192886087891611540000001317389075542569858_);}
	.st8{fill:url(#SVGID_00000034810631517559932110000006244418271184756403_);}
	.st9{fill:url(#SVGID_00000021837171258569600970000015744858502063717288_);}
	.st10{fill:url(#SVGID_00000158731812376145285980000005143421415052337038_);}
	.st11{fill:url(#SVGID_00000163776729769909783840000010417357646710806927_);}
	.st12{fill:#1CD0BB;}
</style>
<circle class="st0" cx="396.801" cy="313.644" r="113.574"/>
<g>
	<circle class="st1" cx="625.591" cy="386.231" r="65.308"/>
	<linearGradient id="SVGID_1_" gradientUnits="userSpaceOnUse" x1="557.2832" y1="386.2312" x2="693.8984" y2="386.2312">
		<stop  offset="0" style="stop-color:#00B4E5"/>
		<stop  offset="1" style="stop-color:#1CD0BB"/>
	</linearGradient>
	<path class="st2" d="M625.591,454.539c-37.665,0-68.308-30.643-68.308-68.308c0-37.665,30.643-68.308,68.308-68.308
		s68.308,30.643,68.308,68.308C693.898,423.896,663.256,454.539,625.591,454.539z M625.591,323.923
		c-34.356,0-62.308,27.951-62.308,62.308c0,34.357,27.951,62.308,62.308,62.308s62.308-27.951,62.308-62.308
		C687.898,351.875,659.947,323.923,625.591,323.923z"/>
</g>
<g>
	<circle class="st1" cx="625.591" cy="241.228" r="65.308"/>
	
		<linearGradient id="SVGID_00000056392314092565560950000005193490869246608058_" gradientUnits="userSpaceOnUse" x1="557.2832" y1="241.2278" x2="693.8984" y2="241.2278">
		<stop  offset="0" style="stop-color:#00B4E5"/>
		<stop  offset="1" style="stop-color:#1CD0BB"/>
	</linearGradient>
	<path style="fill:url(#SVGID_00000056392314092565560950000005193490869246608058_);" d="M625.591,309.536
		c-37.665,0-68.308-30.643-68.308-68.308s30.643-68.308,68.308-68.308s68.308,30.643,68.308,68.308S663.256,309.536,625.591,309.536
		z M625.591,178.92c-34.356,0-62.308,27.951-62.308,62.308c0,34.356,27.951,62.308,62.308,62.308s62.308-27.951,62.308-62.308
		C687.898,206.871,659.947,178.92,625.591,178.92z"/>
</g>
<g>
	<circle class="st1" cx="258.003" cy="504.105" r="65.308"/>
	
		<linearGradient id="SVGID_00000003802072831982333710000005998602156464154755_" gradientUnits="userSpaceOnUse" x1="189.6953" y1="504.105" x2="326.311" y2="504.105">
		<stop  offset="0" style="stop-color:#00B4E5"/>
		<stop  offset="1" style="stop-color:#1CD0BB"/>
	</linearGradient>
	<path style="fill:url(#SVGID_00000003802072831982333710000005998602156464154755_);" d="M258.003,572.413
		c-37.665,0-68.308-30.644-68.308-68.309s30.643-68.308,68.308-68.308s68.308,30.643,68.308,68.308S295.668,572.413,258.003,572.413
		z M258.003,441.797c-34.357,0-62.308,27.951-62.308,62.308c0,34.357,27.951,62.309,62.308,62.309
		c34.356,0,62.308-27.951,62.308-62.309C320.311,469.748,292.36,441.797,258.003,441.797z"/>
</g>
<g>
	<circle class="st1" cx="260.003" cy="123.503" r="65.308"/>
	
		<linearGradient id="SVGID_00000098922838696278727060000009495294302638450870_" gradientUnits="userSpaceOnUse" x1="191.6953" y1="123.5027" x2="328.311" y2="123.5027">
		<stop  offset="0" style="stop-color:#00B4E5"/>
		<stop  offset="1" style="stop-color:#1CD0BB"/>
	</linearGradient>
	<path style="fill:url(#SVGID_00000098922838696278727060000009495294302638450870_);" d="M260.003,191.811
		c-37.665,0-68.308-30.643-68.308-68.308s30.643-68.308,68.308-68.308s68.308,30.643,68.308,68.308S297.668,191.811,260.003,191.811
		z M260.003,61.195c-34.357,0-62.308,27.951-62.308,62.308c0,34.356,27.951,62.308,62.308,62.308
		c34.356,0,62.308-27.951,62.308-62.308C322.311,89.146,294.36,61.195,260.003,61.195z"/>
</g>
<g>
	<circle class="st1" cx="539.078" cy="124.503" r="65.308"/>
	
		<linearGradient id="SVGID_00000046332986287055865350000003149643456735805327_" gradientUnits="userSpaceOnUse" x1="470.7705" y1="124.5027" x2="607.3857" y2="124.5027">
		<stop  offset="0" style="stop-color:#00B4E5"/>
		<stop  offset="1" style="stop-color:#1CD0BB"/>
	</linearGradient>
	<path style="fill:url(#SVGID_00000046332986287055865350000003149643456735805327_);" d="M539.078,192.811
		c-37.665,0-68.308-30.643-68.308-68.308s30.643-68.308,68.308-68.308s68.308,30.643,68.308,68.308S576.743,192.811,539.078,192.811
		z M539.078,62.195c-34.356,0-62.308,27.951-62.308,62.308c0,34.356,27.951,62.308,62.308,62.308s62.308-27.951,62.308-62.308
		C601.386,90.146,573.435,62.195,539.078,62.195z"/>
</g>
<g>
	<circle class="st1" cx="399.082" cy="548.664" r="65.308"/>
	
		<linearGradient id="SVGID_00000176731281346119892360000016887744954439437479_" gradientUnits="userSpaceOnUse" x1="330.7744" y1="548.6646" x2="467.3906" y2="548.6646">
		<stop  offset="0" style="stop-color:#00B4E5"/>
		<stop  offset="1" style="stop-color:#1CD0BB"/>
	</linearGradient>
	<path style="fill:url(#SVGID_00000176731281346119892360000016887744954439437479_);" d="M399.083,616.973
		c-37.665,0-68.308-30.644-68.308-68.309s30.643-68.308,68.308-68.308c37.666,0,68.308,30.643,68.308,68.308
		S436.748,616.973,399.083,616.973z M399.083,486.356c-34.357,0-62.308,27.951-62.308,62.308c0,34.357,27.951,62.309,62.308,62.309
		s62.308-27.951,62.308-62.309C461.391,514.308,433.439,486.356,399.083,486.356z"/>
</g>
<g>
	<circle class="st1" cx="399.082" cy="78.73" r="65.308"/>
	
		<linearGradient id="SVGID_00000031927814036221660340000007579844532471705777_" gradientUnits="userSpaceOnUse" x1="330.7744" y1="78.73" x2="467.3906" y2="78.73">
		<stop  offset="0" style="stop-color:#00B4E5"/>
		<stop  offset="1" style="stop-color:#1CD0BB"/>
	</linearGradient>
	<path style="fill:url(#SVGID_00000031927814036221660340000007579844532471705777_);" d="M399.083,147.038
		c-37.665,0-68.308-30.643-68.308-68.308s30.643-68.308,68.308-68.308c37.666,0,68.308,30.643,68.308,68.308
		S436.748,147.038,399.083,147.038z M399.083,16.422c-34.357,0-62.308,27.951-62.308,62.308s27.951,62.308,62.308,62.308
		s62.308-27.951,62.308-62.308S433.439,16.422,399.083,16.422z"/>
</g>
<g>
	<circle class="st1" cx="538.078" cy="504.105" r="65.308"/>
	
		<linearGradient id="SVGID_00000162320434588809978340000002266704227822943923_" gradientUnits="userSpaceOnUse" x1="469.7705" y1="504.105" x2="606.3857" y2="504.105">
		<stop  offset="0" style="stop-color:#00B4E5"/>
		<stop  offset="1" style="stop-color:#1CD0BB"/>
	</linearGradient>
	<path style="fill:url(#SVGID_00000162320434588809978340000002266704227822943923_);" d="M538.078,572.413
		c-37.665,0-68.308-30.644-68.308-68.309s30.643-68.308,68.308-68.308s68.308,30.643,68.308,68.308S575.743,572.413,538.078,572.413
		z M538.078,441.797c-34.356,0-62.308,27.951-62.308,62.308c0,34.357,27.951,62.309,62.308,62.309s62.308-27.951,62.308-62.309
		C600.386,469.748,572.435,441.797,538.078,441.797z"/>
</g>
<g>
	<circle class="st1" cx="171.983" cy="386.231" r="65.308"/>
	
		<linearGradient id="SVGID_00000150075230796698144330000011981898602423095991_" gradientUnits="userSpaceOnUse" x1="103.6753" y1="386.2312" x2="240.291" y2="386.2312">
		<stop  offset="0" style="stop-color:#00B4E5"/>
		<stop  offset="1" style="stop-color:#1CD0BB"/>
	</linearGradient>
	<path style="fill:url(#SVGID_00000150075230796698144330000011981898602423095991_);" d="M171.983,454.539
		c-37.665,0-68.308-30.643-68.308-68.308c0-37.665,30.643-68.308,68.308-68.308s68.308,30.643,68.308,68.308
		C240.291,423.896,209.648,454.539,171.983,454.539z M171.983,323.923c-34.356,0-62.308,27.951-62.308,62.308
		c0,34.357,27.951,62.308,62.308,62.308c34.357,0,62.308-27.951,62.308-62.308C234.291,351.875,206.34,323.923,171.983,323.923z"/>
</g>
<g>
	<circle class="st1" cx="171.983" cy="241.228" r="65.308"/>
	
		<linearGradient id="SVGID_00000129190071993737073190000015395130812136485001_" gradientUnits="userSpaceOnUse" x1="103.6753" y1="241.2278" x2="240.291" y2="241.2278">
		<stop  offset="0" style="stop-color:#00B4E5"/>
		<stop  offset="1" style="stop-color:#1CD0BB"/>
	</linearGradient>
	<path style="fill:url(#SVGID_00000129190071993737073190000015395130812136485001_);" d="M171.983,309.536
		c-37.665,0-68.308-30.643-68.308-68.308s30.643-68.308,68.308-68.308s68.308,30.643,68.308,68.308S209.648,309.536,171.983,309.536
		z M171.983,178.92c-34.356,0-62.308,27.951-62.308,62.308c0,34.356,27.951,62.308,62.308,62.308
		c34.357,0,62.308-27.951,62.308-62.308C234.291,206.871,206.34,178.92,171.983,178.92z"/>
</g>
<g>
	<path class="st1" d="M329.06,282.631h12.601v2.709h-9.626v4.619h8.538v2.709h-8.538v6.893h-2.975V282.631z"/>
	<path class="st1" d="M345.089,282.631h2.975v16.93h-2.975V282.631z"/>
	<path class="st1" d="M352.584,282.631h2.757l9.07,11.706v-11.706h2.926v16.93h-2.491l-9.335-12.044v12.044h-2.926V282.631z"/>
	<path class="st1" d="M377.682,282.51h2.757l7.449,17.051h-3.144l-1.717-4.087h-8.005l-1.741,4.087h-3.047L377.682,282.51z
		 M381.938,292.837l-2.926-6.771l-2.902,6.771H381.938z"/>
	<path class="st1" d="M390.784,282.631h2.757l9.07,11.706v-11.706h2.926v16.93h-2.491l-9.335-12.044v12.044h-2.926V282.631z"/>
	<path class="st1" d="M409.134,291.145v-0.048c0-4.813,3.604-8.755,8.731-8.755c3.12,0,5.007,1.088,6.627,2.636l-1.911,2.201
		c-1.354-1.258-2.805-2.104-4.74-2.104c-3.217,0-5.587,2.66-5.587,5.974v0.048c0,3.313,2.347,5.998,5.587,5.998
		c2.08,0,3.41-0.822,4.861-2.177l1.911,1.935c-1.766,1.838-3.7,2.999-6.869,2.999C412.811,299.851,409.134,296.006,409.134,291.145z
		"/>
	<path class="st1" d="M427.896,282.631h2.975v16.93h-2.975V282.631z"/>
	<path class="st1" d="M441.39,282.51h2.757l7.449,17.051h-3.145l-1.717-4.087h-8.005l-1.742,4.087h-3.047L441.39,282.51z
		 M445.646,292.837l-2.927-6.771l-2.902,6.771H445.646z"/>
	<path class="st1" d="M454.492,282.631h2.975v14.221h8.9v2.708h-11.875V282.631z"/>
	<path class="st1" d="M370.173,311.645h7.546c2.128,0,3.797,0.629,4.885,1.693c0.895,0.919,1.403,2.177,1.403,3.652v0.048
		c0,2.781-1.669,4.45-4.015,5.127l4.571,6.409h-3.531l-4.16-5.901h-3.725v5.901h-2.975V311.645z M377.501,320.037
		c2.128,0,3.482-1.112,3.482-2.83v-0.048c0-1.814-1.306-2.805-3.507-2.805h-4.329v5.683H377.501z"/>
	<path class="st1" d="M387.823,311.645h2.975v16.93h-2.975V311.645z"/>
	<path class="st1" d="M394.181,326.107l1.79-2.128c1.621,1.403,3.265,2.201,5.345,2.201c1.838,0,2.999-0.871,2.999-2.128v-0.048
		c0-1.209-0.677-1.862-3.821-2.588c-3.604-0.871-5.635-1.935-5.635-5.055v-0.048c0-2.902,2.418-4.91,5.78-4.91
		c2.467,0,4.426,0.75,6.143,2.128l-1.596,2.249c-1.524-1.137-3.047-1.741-4.595-1.741c-1.742,0-2.757,0.895-2.757,2.007v0.048
		c0,1.306,0.774,1.886,4.039,2.66c3.579,0.871,5.417,2.153,5.417,4.958v0.048c0,3.168-2.491,5.055-6.046,5.055
		C398.655,328.816,396.212,327.921,394.181,326.107z"/>
	<path class="st1" d="M410.792,311.645h2.975v8.513l8.054-8.513h3.676l-7.062,7.28l7.377,9.65h-3.628l-5.78-7.618l-2.636,2.708v4.91
		h-2.975V311.645z"/>
	<path class="st1" d="M343.157,340.537h2.757l7.449,17.051h-3.144l-1.717-4.087h-8.005l-1.741,4.087h-3.047L343.157,340.537z
		 M347.413,350.864l-2.926-6.771l-2.902,6.771H347.413z"/>
	<path class="st1" d="M356.259,340.658h2.757l9.07,11.706v-11.706h2.926v16.93h-2.491l-9.335-12.044v12.044h-2.926V340.658z"/>
	<path class="st1" d="M381.357,340.537h2.757l7.449,17.051h-3.144l-1.717-4.087h-8.005l-1.741,4.087h-3.047L381.357,340.537z
		 M385.613,350.864l-2.926-6.771l-2.902,6.771H385.613z"/>
	<path class="st1" d="M394.459,340.658h2.975v14.221h8.9v2.709h-11.875V340.658z"/>
	<path class="st1" d="M411.264,350.913l-6.723-10.254h3.531l4.716,7.473l4.789-7.473h3.41l-6.724,10.182v6.748h-2.999V350.913z"/>
	<path class="st1" d="M421.609,355.121l1.79-2.128c1.62,1.403,3.265,2.201,5.345,2.201c1.838,0,2.999-0.871,2.999-2.128v-0.048
		c0-1.209-0.678-1.862-3.821-2.588c-3.604-0.871-5.636-1.935-5.636-5.055v-0.048c0-2.902,2.419-4.91,5.78-4.91
		c2.467,0,4.426,0.75,6.144,2.128l-1.597,2.249c-1.523-1.137-3.047-1.741-4.595-1.741c-1.741,0-2.757,0.895-2.757,2.007v0.048
		c0,1.306,0.773,1.886,4.038,2.66c3.58,0.871,5.418,2.153,5.418,4.958v0.048c0,3.168-2.491,5.055-6.047,5.055
		C426.084,357.83,423.641,356.935,421.609,355.121z"/>
	<path class="st1" d="M438.389,340.658h2.975v16.93h-2.975V340.658z"/>
	<path class="st1" d="M444.747,355.121l1.79-2.128c1.62,1.403,3.265,2.201,5.345,2.201c1.838,0,2.999-0.871,2.999-2.128v-0.048
		c0-1.209-0.678-1.862-3.821-2.588c-3.604-0.871-5.636-1.935-5.636-5.055v-0.048c0-2.902,2.419-4.91,5.78-4.91
		c2.467,0,4.426,0.75,6.144,2.128l-1.597,2.249c-1.523-1.137-3.047-1.741-4.595-1.741c-1.741,0-2.757,0.895-2.757,2.007v0.048
		c0,1.306,0.773,1.886,4.038,2.66c3.58,0.871,5.418,2.153,5.418,4.958v0.048c0,3.168-2.491,5.055-6.047,5.055
		C449.222,357.83,446.778,356.935,444.747,355.121z"/>
</g>
<g>
	<path class="st0" d="M121.841,366.967h3.742c1.056,0,1.883,0.312,2.423,0.84c0.443,0.456,0.695,1.079,0.695,1.811v0.024
		c0,1.379-0.827,2.207-1.991,2.542l2.268,3.178h-1.751l-2.063-2.926h-1.847v2.926h-1.476V366.967z M125.476,371.128
		c1.055,0,1.727-0.551,1.727-1.403v-0.024c0-0.899-0.647-1.391-1.739-1.391h-2.146v2.818H125.476z"/>
	<path class="st0" d="M130.481,366.967h1.476v8.396h-1.476V366.967z"/>
	<path class="st0" d="M133.517,374.139l0.888-1.056c0.804,0.696,1.619,1.091,2.65,1.091c0.911,0,1.487-0.432,1.487-1.055v-0.024
		c0-0.6-0.336-0.924-1.895-1.283c-1.787-0.432-2.795-0.96-2.795-2.507v-0.024c0-1.439,1.199-2.435,2.866-2.435
		c1.224,0,2.195,0.372,3.047,1.055l-0.792,1.115c-0.756-0.563-1.511-0.863-2.278-0.863c-0.864,0-1.367,0.444-1.367,0.996v0.024
		c0,0.647,0.384,0.936,2.003,1.319c1.774,0.432,2.687,1.067,2.687,2.458v0.024c0,1.571-1.235,2.507-2.999,2.507
		C135.736,375.482,134.525,375.039,133.517,374.139z"/>
	<path class="st0" d="M141.64,366.967h1.476v4.222l3.994-4.222h1.822l-3.502,3.61l3.658,4.785h-1.799l-2.866-3.778l-1.308,1.343
		v2.435h-1.476V366.967z"/>
	<path class="st0" d="M156.687,366.907h1.367l3.694,8.456h-1.56l-0.852-2.027h-3.97l-0.863,2.027h-1.512L156.687,366.907z
		 M158.798,372.028l-1.451-3.358l-1.439,3.358H158.798z"/>
	<path class="st0" d="M163.072,366.967h1.367l4.498,5.805v-5.805h1.451v8.396h-1.235l-4.63-5.973v5.973h-1.451V366.967z"/>
	<path class="st0" d="M175.406,366.907h1.367l3.694,8.456h-1.56l-0.852-2.027h-3.97l-0.863,2.027h-1.512L175.406,366.907z
		 M177.517,372.028l-1.451-3.358l-1.439,3.358H177.517z"/>
	<path class="st0" d="M181.791,366.967h1.476v7.052h4.413v1.343h-5.889V366.967z"/>
	<path class="st0" d="M190.009,372.052l-3.334-5.085h1.751l2.339,3.706l2.375-3.706h1.69l-3.334,5.049v3.346h-1.487V372.052z"/>
	<path class="st0" d="M198.074,368.334h-2.663v-1.367h6.812v1.367h-2.662v7.028h-1.487V368.334z"/>
	<path class="st0" d="M203.75,366.967h1.476v8.396h-1.476V366.967z"/>
	<path class="st0" d="M206.979,371.188v-0.024c0-2.387,1.786-4.341,4.329-4.341c1.547,0,2.482,0.54,3.286,1.307l-0.947,1.091
		c-0.672-0.624-1.392-1.043-2.351-1.043c-1.596,0-2.771,1.319-2.771,2.962v0.024c0,1.643,1.163,2.975,2.771,2.975
		c1.031,0,1.691-0.408,2.41-1.08l0.948,0.959c-0.876,0.912-1.835,1.487-3.406,1.487
		C208.801,375.506,206.979,373.599,206.979,371.188z"/>
	<path class="st0" d="M215.523,374.139l0.888-1.056c0.804,0.696,1.619,1.091,2.65,1.091c0.911,0,1.487-0.432,1.487-1.055v-0.024
		c0-0.6-0.336-0.924-1.895-1.283c-1.787-0.432-2.795-0.96-2.795-2.507v-0.024c0-1.439,1.199-2.435,2.866-2.435
		c1.224,0,2.195,0.372,3.047,1.055l-0.792,1.115c-0.756-0.563-1.511-0.863-2.278-0.863c-0.864,0-1.367,0.444-1.367,0.996v0.024
		c0,0.647,0.384,0.936,2.003,1.319c1.774,0.432,2.687,1.067,2.687,2.458v0.024c0,1.571-1.235,2.507-2.999,2.507
		C217.742,375.482,216.531,375.039,215.523,374.139z"/>
	<path class="st0" d="M126.348,385.588v-0.024c0-2.363,1.822-4.342,4.401-4.342c2.578,0,4.377,1.955,4.377,4.318v0.024
		c0,2.363-1.822,4.342-4.401,4.342C128.147,389.906,126.348,387.951,126.348,385.588z M133.58,385.588v-0.024
		c0-1.631-1.188-2.986-2.854-2.986s-2.83,1.331-2.83,2.962v0.024c0,1.631,1.188,2.975,2.854,2.975S133.58,387.22,133.58,385.588z"/>
	<path class="st0" d="M136.799,381.367h1.367l4.498,5.805v-5.805h1.451v8.396h-1.235l-4.63-5.973v5.973h-1.451V381.367z"/>
	<path class="st0" d="M149.267,385.588v-0.024c0-2.387,1.787-4.342,4.329-4.342c1.547,0,2.482,0.54,3.286,1.308l-0.947,1.091
		c-0.672-0.624-1.392-1.043-2.351-1.043c-1.596,0-2.771,1.319-2.771,2.962v0.024c0,1.643,1.163,2.975,2.771,2.975
		c1.031,0,1.69-0.408,2.41-1.08l0.948,0.959c-0.876,0.912-1.835,1.487-3.406,1.487C151.089,389.906,149.267,387.999,149.267,385.588
		z"/>
	<path class="st0" d="M158.242,386.2v-4.833h1.476v4.773c0,1.559,0.804,2.387,2.123,2.387c1.307,0,2.11-0.78,2.11-2.327v-4.833
		h1.476v4.762c0,2.506-1.415,3.766-3.61,3.766C159.633,389.894,158.242,388.635,158.242,386.2z"/>
	<path class="st0" d="M166.775,388.539l0.888-1.056c0.804,0.696,1.619,1.091,2.65,1.091c0.911,0,1.487-0.432,1.487-1.055v-0.024
		c0-0.6-0.336-0.924-1.895-1.284c-1.787-0.432-2.795-0.959-2.795-2.506v-0.024c0-1.439,1.199-2.435,2.866-2.435
		c1.224,0,2.195,0.372,3.047,1.055l-0.792,1.115c-0.756-0.563-1.511-0.863-2.278-0.863c-0.864,0-1.367,0.444-1.367,0.996v0.024
		c0,0.647,0.384,0.936,2.003,1.319c1.774,0.432,2.687,1.067,2.687,2.458v0.024c0,1.571-1.235,2.507-2.999,2.507
		C168.994,389.882,167.783,389.438,166.775,388.539z"/>
	<path class="st0" d="M176.782,382.734h-2.663v-1.367h6.812v1.367h-2.662v7.028h-1.487V382.734z"/>
	<path class="st0" d="M181.547,385.588v-0.024c0-2.363,1.822-4.342,4.401-4.342c2.578,0,4.377,1.955,4.377,4.318v0.024
		c0,2.363-1.822,4.342-4.401,4.342C183.346,389.906,181.547,387.951,181.547,385.588z M188.779,385.588v-0.024
		c0-1.631-1.188-2.986-2.854-2.986s-2.83,1.331-2.83,2.962v0.024c0,1.631,1.188,2.975,2.854,2.975S188.779,387.22,188.779,385.588z"
		/>
	<path class="st0" d="M191.999,381.367h1.571l2.555,3.97l2.555-3.97h1.571v8.396h-1.476v-6.021l-2.65,3.958h-0.048l-2.627-3.934
		v5.997h-1.451V381.367z"/>
	<path class="st0" d="M202.294,381.367h6.225v1.319h-4.749v2.183h4.21v1.319h-4.21v2.255h4.81v1.319h-6.285V381.367z"/>
	<path class="st0" d="M210.214,381.367h3.742c1.056,0,1.883,0.312,2.423,0.84c0.443,0.456,0.695,1.079,0.695,1.811v0.024
		c0,1.379-0.827,2.207-1.991,2.542l2.268,3.178H215.6l-2.063-2.926h-1.847v2.926h-1.476V381.367z M213.849,385.528
		c1.055,0,1.727-0.551,1.727-1.403v-0.024c0-0.9-0.647-1.392-1.739-1.392h-2.146v2.818H213.849z"/>
	<path class="st0" d="M138.492,402.938l0.888-1.056c0.804,0.696,1.619,1.092,2.65,1.092c0.911,0,1.487-0.432,1.487-1.056v-0.023
		c0-0.6-0.336-0.924-1.895-1.283c-1.787-0.432-2.795-0.96-2.795-2.507v-0.024c0-1.439,1.199-2.435,2.866-2.435
		c1.224,0,2.195,0.372,3.047,1.055l-0.792,1.115c-0.756-0.563-1.511-0.863-2.278-0.863c-0.864,0-1.367,0.444-1.367,0.996v0.024
		c0,0.647,0.384,0.936,2.003,1.319c1.774,0.432,2.687,1.067,2.687,2.458v0.024c0,1.571-1.235,2.507-2.999,2.507
		C140.71,404.282,139.5,403.838,138.492,402.938z"/>
	<path class="st0" d="M146.615,395.767h6.225v1.319h-4.749v2.183h4.21v1.319h-4.21v2.255h4.81v1.319h-6.285V395.767z"/>
	<path class="st0" d="M154.164,399.988v-0.024c0-2.351,1.799-4.341,4.329-4.341c1.463,0,2.363,0.408,3.227,1.139l-0.936,1.115
		c-0.647-0.552-1.283-0.899-2.351-0.899c-1.548,0-2.723,1.355-2.723,2.962v0.024c0,1.727,1.14,2.999,2.854,2.999
		c0.791,0,1.511-0.252,2.026-0.636v-1.571h-2.146v-1.283h3.574v3.525c-0.828,0.708-2.015,1.308-3.502,1.308
		C155.89,404.306,154.164,402.435,154.164,399.988z"/>
	<path class="st0" d="M163.823,395.767h1.571l2.555,3.97l2.555-3.97h1.571v8.396h-1.476v-6.021l-2.65,3.957h-0.048l-2.627-3.933
		v5.997h-1.451V395.767z"/>
	<path class="st0" d="M174.119,395.767h6.225v1.319h-4.749v2.183h4.21v1.319h-4.21v2.255h4.81v1.319h-6.285V395.767z"/>
	<path class="st0" d="M182.04,395.767h1.367l4.498,5.805v-5.805h1.451v8.396h-1.235l-4.63-5.973v5.973h-1.451V395.767z"/>
	<path class="st0" d="M193.462,397.134h-2.663v-1.367h6.812v1.367h-2.662v7.028h-1.487V397.134z"/>
	<path class="st0" d="M198.312,402.938l0.888-1.056c0.804,0.696,1.619,1.092,2.65,1.092c0.911,0,1.487-0.432,1.487-1.056v-0.023
		c0-0.6-0.336-0.924-1.895-1.283c-1.787-0.432-2.795-0.96-2.795-2.507v-0.024c0-1.439,1.199-2.435,2.866-2.435
		c1.224,0,2.195,0.372,3.047,1.055l-0.792,1.115c-0.756-0.563-1.511-0.863-2.278-0.863c-0.864,0-1.367,0.444-1.367,0.996v0.024
		c0,0.647,0.384,0.936,2.003,1.319c1.774,0.432,2.687,1.067,2.687,2.458v0.024c0,1.571-1.235,2.507-2.999,2.507
		C200.531,404.282,199.32,403.838,198.312,402.938z"/>
</g>
<g>
	<path class="st0" d="M138.547,228.751l0.888-1.056c0.804,0.696,1.619,1.091,2.65,1.091c0.911,0,1.487-0.432,1.487-1.055v-0.024
		c0-0.6-0.336-0.924-1.895-1.283c-1.787-0.432-2.795-0.96-2.795-2.507v-0.024c0-1.439,1.199-2.435,2.866-2.435
		c1.224,0,2.195,0.372,3.047,1.055l-0.792,1.115c-0.756-0.563-1.511-0.863-2.278-0.863c-0.864,0-1.367,0.444-1.367,0.996v0.024
		c0,0.647,0.384,0.936,2.003,1.319c1.774,0.432,2.687,1.067,2.687,2.458v0.024c0,1.571-1.235,2.507-2.999,2.507
		C140.766,230.095,139.555,229.651,138.547,228.751z"/>
	<path class="st0" d="M146.299,225.801v-0.024c0-2.387,1.787-4.341,4.329-4.341c1.547,0,2.482,0.54,3.286,1.307l-0.947,1.091
		c-0.672-0.624-1.392-1.043-2.351-1.043c-1.596,0-2.771,1.319-2.771,2.962v0.024c0,1.643,1.163,2.975,2.771,2.975
		c1.031,0,1.69-0.408,2.41-1.08l0.948,0.959c-0.876,0.912-1.835,1.487-3.406,1.487C148.122,230.119,146.299,228.211,146.299,225.801
		z"/>
	<path class="st0" d="M155.406,221.579h6.225v1.319h-4.749v2.183h4.21v1.319h-4.21v2.255h4.81v1.319h-6.285V221.579z"/>
	<path class="st0" d="M163.326,221.579h1.367l4.498,5.805v-5.805h1.451v8.396h-1.235l-4.63-5.973v5.973h-1.451V221.579z"/>
	<path class="st0" d="M175.66,221.519h1.367l3.694,8.456h-1.56l-0.852-2.027h-3.97l-0.863,2.027h-1.512L175.66,221.519z
		 M177.771,226.641l-1.451-3.358l-1.439,3.358H177.771z"/>
	<path class="st0" d="M182.045,221.579h3.742c1.056,0,1.883,0.312,2.423,0.84c0.443,0.456,0.695,1.079,0.695,1.811v0.024
		c0,1.379-0.827,2.207-1.991,2.542l2.268,3.178h-1.751l-2.063-2.926h-1.847v2.926h-1.476V221.579z M185.68,225.741
		c1.055,0,1.727-0.551,1.727-1.403v-0.024c0-0.899-0.647-1.391-1.739-1.391h-2.146v2.818H185.68z"/>
	<path class="st0" d="M190.685,221.579h1.476v8.396h-1.476V221.579z"/>
	<path class="st0" d="M193.914,225.801v-0.024c0-2.363,1.822-4.341,4.401-4.341c2.578,0,4.377,1.955,4.377,4.317v0.024
		c0,2.363-1.822,4.342-4.401,4.342C195.712,230.119,193.914,228.164,193.914,225.801z M201.145,225.801v-0.024
		c0-1.631-1.188-2.986-2.854-2.986s-2.83,1.332-2.83,2.962v0.024c0,1.631,1.188,2.975,2.854,2.975S201.145,227.432,201.145,225.801z
		"/>
	<path class="st0" d="M123.199,235.979h3.311c1.967,0,3.19,1.116,3.19,2.807v0.024c0,1.883-1.512,2.866-3.358,2.866h-1.667v2.699
		h-1.476V235.979z M126.389,240.345c1.115,0,1.812-0.624,1.812-1.499v-0.024c0-0.984-0.708-1.5-1.812-1.5h-1.715v3.022H126.389z"/>
	<path class="st0" d="M131.094,235.979h1.476v7.052h4.413v1.343h-5.889V235.979z"/>
	<path class="st0" d="M141.376,235.919h1.367l3.694,8.456h-1.56l-0.852-2.027h-3.97l-0.863,2.027h-1.512L141.376,235.919z
		 M143.488,241.041l-1.451-3.358l-1.439,3.358H143.488z"/>
	<path class="st0" d="M147.761,235.979h1.367l4.498,5.805v-5.805h1.451v8.396h-1.235l-4.63-5.973v5.973h-1.451V235.979z"/>
	<path class="st0" d="M157.121,235.979h1.367l4.498,5.805v-5.805h1.451v8.396h-1.235l-4.63-5.973v5.973h-1.451V235.979z"/>
	<path class="st0" d="M166.565,235.979h1.476v8.396h-1.476V235.979z"/>
	<path class="st0" d="M170.165,235.979h1.367l4.498,5.805v-5.805h1.451v8.396h-1.235l-4.63-5.973v5.973h-1.451V235.979z"/>
	<path class="st0" d="M179.153,240.201v-0.024c0-2.351,1.799-4.342,4.329-4.342c1.463,0,2.363,0.408,3.227,1.14l-0.936,1.115
		c-0.647-0.552-1.283-0.899-2.351-0.899c-1.548,0-2.723,1.355-2.723,2.962v0.024c0,1.727,1.14,2.999,2.854,2.999
		c0.791,0,1.511-0.252,2.026-0.636v-1.571h-2.146v-1.283h3.574v3.526c-0.828,0.708-2.015,1.308-3.502,1.308
		C180.879,244.519,179.153,242.647,179.153,240.201z"/>
	<path class="st0" d="M195.266,235.919h1.367l3.694,8.456h-1.56l-0.852-2.027h-3.97l-0.863,2.027h-1.512L195.266,235.919z
		 M197.377,241.041l-1.451-3.358l-1.439,3.358H197.377z"/>
	<path class="st0" d="M201.651,235.979h1.367l4.498,5.805v-5.805h1.451v8.396h-1.235l-4.63-5.973v5.973h-1.451V235.979z"/>
	<path class="st0" d="M211.01,235.979h3.131c2.639,0,4.461,1.811,4.461,4.174v0.024c0,2.363-1.822,4.198-4.461,4.198h-3.131V235.979
		z M212.486,237.322v5.709h1.655c1.763,0,2.914-1.188,2.914-2.831v-0.024c0-1.643-1.151-2.854-2.914-2.854H212.486z"/>
	<path class="st0" d="M126.96,250.379h6.249v1.343h-4.773v2.291h4.233v1.343h-4.233v3.418h-1.476V250.379z"/>
	<path class="st0" d="M134.269,254.601v-0.024c0-2.363,1.822-4.341,4.401-4.341c2.578,0,4.377,1.955,4.377,4.317v0.024
		c0,2.363-1.822,4.342-4.401,4.342C136.068,258.918,134.269,256.963,134.269,254.601z M141.5,254.601v-0.024
		c0-1.631-1.188-2.986-2.854-2.986s-2.83,1.332-2.83,2.962v0.024c0,1.631,1.188,2.975,2.854,2.975S141.5,256.232,141.5,254.601z"/>
	<path class="st0" d="M144.72,250.379h3.742c1.056,0,1.883,0.312,2.423,0.84c0.443,0.456,0.695,1.079,0.695,1.811v0.024
		c0,1.379-0.827,2.207-1.99,2.542l2.267,3.178h-1.751l-2.063-2.926h-1.847v2.926h-1.476V250.379z M148.355,254.541
		c1.055,0,1.727-0.551,1.727-1.403v-0.024c0-0.899-0.647-1.391-1.739-1.391h-2.146v2.818H148.355z"/>
	<path class="st0" d="M153.276,250.379h6.225v1.319h-4.749v2.183h4.21v1.319h-4.21v2.255h4.81v1.319h-6.285V250.379z"/>
	<path class="st0" d="M160.825,254.601v-0.024c0-2.387,1.787-4.341,4.329-4.341c1.547,0,2.482,0.54,3.286,1.307l-0.947,1.091
		c-0.672-0.624-1.392-1.043-2.351-1.043c-1.596,0-2.771,1.319-2.771,2.962v0.024c0,1.643,1.163,2.975,2.771,2.975
		c1.031,0,1.69-0.408,2.41-1.08l0.948,0.959c-0.876,0.912-1.835,1.487-3.406,1.487C162.647,258.918,160.825,257.011,160.825,254.601
		z"/>
	<path class="st0" d="M172.907,250.319h1.367l3.694,8.456h-1.56l-0.852-2.027h-3.97l-0.863,2.027h-1.512L172.907,250.319z
		 M175.018,255.44l-1.451-3.358l-1.439,3.358H175.018z"/>
	<path class="st0" d="M178.584,257.551l0.888-1.056c0.804,0.696,1.619,1.091,2.65,1.091c0.911,0,1.487-0.432,1.487-1.055v-0.024
		c0-0.6-0.336-0.924-1.895-1.283c-1.787-0.432-2.795-0.96-2.795-2.507v-0.024c0-1.439,1.199-2.435,2.866-2.435
		c1.224,0,2.195,0.372,3.047,1.055l-0.792,1.115c-0.756-0.563-1.511-0.863-2.278-0.863c-0.864,0-1.367,0.444-1.367,0.996v0.024
		c0,0.647,0.384,0.936,2.003,1.319c1.774,0.432,2.687,1.067,2.687,2.458v0.024c0,1.571-1.235,2.507-2.999,2.507
		C180.803,258.895,179.592,258.451,178.584,257.551z"/>
	<path class="st0" d="M188.591,251.746h-2.663v-1.367h6.812v1.367h-2.662v7.028h-1.487V251.746z"/>
	<path class="st0" d="M194.268,250.379h1.476v8.396h-1.476V250.379z"/>
	<path class="st0" d="M197.868,250.379h1.367l4.498,5.805v-5.805h1.451v8.396h-1.235l-4.63-5.973v5.973h-1.451V250.379z"/>
	<path class="st0" d="M206.856,254.601v-0.024c0-2.351,1.799-4.341,4.329-4.341c1.463,0,2.363,0.408,3.227,1.139l-0.936,1.115
		c-0.647-0.552-1.283-0.899-2.351-0.899c-1.548,0-2.723,1.355-2.723,2.962v0.024c0,1.727,1.14,2.999,2.854,2.999
		c0.791,0,1.511-0.252,2.026-0.636v-1.571h-2.146v-1.283h3.574v3.526c-0.828,0.708-2.015,1.308-3.502,1.308
		C208.583,258.918,206.856,257.047,206.856,254.601z"/>
</g>
<g>
	<path class="st0" d="M223.908,119.168l0.888-1.056c0.804,0.696,1.619,1.091,2.65,1.091c0.911,0,1.487-0.432,1.487-1.055v-0.024
		c0-0.6-0.336-0.924-1.895-1.283c-1.787-0.432-2.795-0.96-2.795-2.507v-0.024c0-1.439,1.199-2.435,2.866-2.435
		c1.224,0,2.195,0.372,3.047,1.055l-0.792,1.115c-0.756-0.563-1.511-0.863-2.278-0.863c-0.864,0-1.367,0.444-1.367,0.996v0.024
		c0,0.647,0.384,0.936,2.003,1.319c1.774,0.432,2.687,1.067,2.687,2.458v0.024c0,1.571-1.235,2.507-2.999,2.507
		C226.127,120.511,224.916,120.067,223.908,119.168z"/>
	<path class="st0" d="M232.031,111.996h6.225v1.319h-4.749v2.183h4.21v1.319h-4.21v2.255h4.81v1.319h-6.285V111.996z"/>
	<path class="st0" d="M239.951,111.996h1.367l4.498,5.805v-5.805h1.451v8.396h-1.235l-4.63-5.973v5.973h-1.451V111.996z"/>
	<path class="st0" d="M248.747,119.168l0.888-1.056c0.804,0.696,1.619,1.091,2.65,1.091c0.911,0,1.487-0.432,1.487-1.055v-0.024
		c0-0.6-0.336-0.924-1.896-1.283c-1.786-0.432-2.794-0.96-2.794-2.507v-0.024c0-1.439,1.199-2.435,2.866-2.435
		c1.224,0,2.195,0.372,3.047,1.055l-0.792,1.115c-0.756-0.563-1.511-0.863-2.278-0.863c-0.864,0-1.367,0.444-1.367,0.996v0.024
		c0,0.647,0.384,0.936,2.003,1.319c1.774,0.432,2.687,1.067,2.687,2.458v0.024c0,1.571-1.235,2.507-2.999,2.507
		C250.966,120.511,249.755,120.067,248.747,119.168z"/>
	<path class="st0" d="M256.954,111.996h1.476v8.396h-1.476V111.996z"/>
	<path class="st0" d="M262.618,113.363h-2.663v-1.367h6.812v1.367h-2.662v7.028h-1.487V113.363z"/>
	<path class="st0" d="M268.295,111.996h1.476v8.396h-1.476V111.996z"/>
	<path class="st0" d="M271.175,111.996h1.632l2.53,6.453l2.519-6.453h1.596l-3.479,8.456h-1.308L271.175,111.996z"/>
	<path class="st0" d="M280.858,111.996h1.476v8.396h-1.476V111.996z"/>
	<path class="st0" d="M286.521,113.363h-2.663v-1.367h6.812v1.367h-2.662v7.028h-1.487V113.363z"/>
	<path class="st0" d="M294.585,117.081l-3.334-5.085h1.751l2.339,3.706l2.375-3.706h1.69l-3.334,5.049v3.346h-1.487V117.081z"/>
	<path class="st0" d="M235.162,126.335h1.367l3.694,8.456h-1.56l-0.852-2.027h-3.97l-0.863,2.027h-1.512L235.162,126.335z
		 M237.273,131.457l-1.451-3.358l-1.439,3.358H237.273z"/>
	<path class="st0" d="M241.547,126.396h1.367l4.498,5.805v-5.805h1.451v8.396h-1.235l-4.63-5.973v5.973h-1.451V126.396z"/>
	<path class="st0" d="M253.881,126.335h1.367l3.694,8.456h-1.56l-0.852-2.027h-3.97l-0.863,2.027h-1.512L253.881,126.335z
		 M255.992,131.457l-1.451-3.358l-1.439,3.358H255.992z"/>
	<path class="st0" d="M260.266,126.396h1.476v7.052h4.413v1.343h-5.889V126.396z"/>
	<path class="st0" d="M268.484,131.481l-3.334-5.085h1.751l2.339,3.706l2.375-3.706h1.69l-3.334,5.049v3.346h-1.487V131.481z"/>
	<path class="st0" d="M273.503,133.568l0.888-1.056c0.804,0.696,1.619,1.091,2.65,1.091c0.911,0,1.487-0.432,1.487-1.055v-0.024
		c0-0.6-0.336-0.924-1.896-1.284c-1.786-0.432-2.794-0.959-2.794-2.506v-0.024c0-1.439,1.199-2.435,2.866-2.435
		c1.224,0,2.195,0.372,3.047,1.055l-0.792,1.115c-0.756-0.563-1.511-0.863-2.278-0.863c-0.864,0-1.367,0.444-1.367,0.996v0.024
		c0,0.647,0.384,0.936,2.003,1.319c1.774,0.432,2.687,1.067,2.687,2.458v0.024c0,1.571-1.235,2.507-2.999,2.507
		C275.722,134.911,274.511,134.467,273.503,133.568z"/>
	<path class="st0" d="M281.71,126.396h1.476v8.396h-1.476V126.396z"/>
	<path class="st0" d="M284.746,133.568l0.888-1.056c0.804,0.696,1.619,1.091,2.65,1.091c0.911,0,1.487-0.432,1.487-1.055v-0.024
		c0-0.6-0.336-0.924-1.895-1.284c-1.787-0.432-2.795-0.959-2.795-2.506v-0.024c0-1.439,1.199-2.435,2.866-2.435
		c1.224,0,2.195,0.372,3.047,1.055l-0.792,1.115c-0.756-0.563-1.511-0.863-2.278-0.863c-0.864,0-1.367,0.444-1.367,0.996v0.024
		c0,0.647,0.384,0.936,2.003,1.319c1.774,0.432,2.687,1.067,2.687,2.458v0.024c0,1.571-1.235,2.507-2.999,2.507
		C286.965,134.911,285.754,134.467,284.746,133.568z"/>
</g>
<g>
	<path class="st0" d="M221.244,492.376h3.311c1.967,0,3.19,1.116,3.19,2.807v0.024c0,1.883-1.512,2.866-3.358,2.866h-1.667v2.698
		h-1.476V492.376z M224.434,496.742c1.115,0,1.812-0.624,1.812-1.499v-0.024c0-0.983-0.708-1.499-1.812-1.499h-1.715v3.022H224.434z
		"/>
	<path class="st0" d="M228.768,496.598v-0.023c0-2.363,1.822-4.342,4.401-4.342c2.578,0,4.377,1.955,4.377,4.317v0.024
		c0,2.362-1.822,4.342-4.401,4.342C230.567,500.916,228.768,498.961,228.768,496.598z M236,496.598v-0.023
		c0-1.631-1.188-2.986-2.854-2.986s-2.83,1.331-2.83,2.962v0.024c0,1.631,1.188,2.975,2.854,2.975S236,498.229,236,496.598z"/>
	<path class="st0" d="M239.219,492.376h3.742c1.056,0,1.883,0.312,2.423,0.84c0.443,0.456,0.695,1.079,0.695,1.812v0.023
		c0,1.379-0.827,2.207-1.99,2.543l2.267,3.178h-1.751l-2.063-2.926h-1.847v2.926h-1.476V492.376z M242.854,496.538
		c1.055,0,1.727-0.552,1.727-1.403v-0.024c0-0.899-0.647-1.391-1.739-1.391h-2.146v2.818H242.854z"/>
	<path class="st0" d="M249.802,493.743h-2.663v-1.367h6.812v1.367h-2.662v7.028h-1.487V493.743z"/>
	<path class="st0" d="M255.395,492.376h6.249v1.344h-4.773v2.291h4.233v1.343h-4.233v3.418h-1.476V492.376z"/>
	<path class="st0" d="M262.706,496.598v-0.023c0-2.363,1.822-4.342,4.401-4.342c2.578,0,4.377,1.955,4.377,4.317v0.024
		c0,2.362-1.822,4.342-4.401,4.342C264.504,500.916,262.706,498.961,262.706,496.598z M269.937,496.598v-0.023
		c0-1.631-1.188-2.986-2.854-2.986s-2.83,1.331-2.83,2.962v0.024c0,1.631,1.188,2.975,2.854,2.975S269.937,498.229,269.937,496.598z
		"/>
	<path class="st0" d="M273.157,492.376h1.476v7.053h4.413v1.343h-5.889V492.376z"/>
	<path class="st0" d="M280.548,492.376h1.476v8.396h-1.476V492.376z"/>
	<path class="st0" d="M283.777,496.598v-0.023c0-2.363,1.822-4.342,4.401-4.342c2.578,0,4.377,1.955,4.377,4.317v0.024
		c0,2.362-1.822,4.342-4.401,4.342C285.576,500.916,283.777,498.961,283.777,496.598z M291.008,496.598v-0.023
		c0-1.631-1.188-2.986-2.854-2.986s-2.83,1.331-2.83,2.962v0.024c0,1.631,1.188,2.975,2.854,2.975S291.008,498.229,291.008,496.598z
		"/>
	<path class="st0" d="M225.743,506.716h1.367l3.694,8.456h-1.56l-0.852-2.027h-3.97l-0.863,2.027h-1.512L225.743,506.716z
		 M227.854,511.838l-1.451-3.358l-1.439,3.358H227.854z"/>
	<path class="st0" d="M232.127,506.776h1.367l4.498,5.805v-5.805h1.451v8.396h-1.235l-4.63-5.973v5.973h-1.451V506.776z"/>
	<path class="st0" d="M244.461,506.716h1.367l3.694,8.456h-1.56l-0.852-2.027h-3.97l-0.863,2.027h-1.512L244.461,506.716z
		 M246.573,511.838l-1.451-3.358l-1.439,3.358H246.573z"/>
	<path class="st0" d="M250.846,506.776h1.476v7.052h4.413v1.344h-5.889V506.776z"/>
	<path class="st0" d="M259.065,511.861l-3.334-5.085h1.751l2.339,3.706l2.375-3.706h1.69l-3.334,5.049v3.347h-1.487V511.861z"/>
	<path class="st0" d="M267.13,508.144h-2.663v-1.367h6.812v1.367h-2.662v7.028h-1.487V508.144z"/>
	<path class="st0" d="M272.807,506.776h1.476v8.396h-1.476V506.776z"/>
	<path class="st0" d="M276.036,510.998v-0.024c0-2.387,1.786-4.342,4.329-4.342c1.547,0,2.482,0.54,3.286,1.308l-0.947,1.092
		c-0.672-0.624-1.392-1.044-2.351-1.044c-1.596,0-2.771,1.319-2.771,2.963v0.023c0,1.644,1.163,2.975,2.771,2.975
		c1.031,0,1.691-0.408,2.41-1.079l0.948,0.959c-0.876,0.912-1.835,1.487-3.406,1.487
		C277.858,515.315,276.036,513.408,276.036,510.998z"/>
	<path class="st0" d="M284.579,513.948l0.888-1.056c0.804,0.696,1.619,1.092,2.65,1.092c0.911,0,1.487-0.432,1.487-1.056v-0.023
		c0-0.6-0.336-0.924-1.896-1.284c-1.786-0.432-2.794-0.959-2.794-2.506v-0.024c0-1.439,1.199-2.435,2.866-2.435
		c1.224,0,2.195,0.372,3.047,1.056l-0.792,1.115c-0.756-0.563-1.511-0.863-2.278-0.863c-0.864,0-1.367,0.443-1.367,0.995v0.024
		c0,0.647,0.384,0.936,2.003,1.319c1.774,0.432,2.687,1.067,2.687,2.458v0.024c0,1.571-1.235,2.507-2.999,2.507
		C286.797,515.292,285.586,514.848,284.579,513.948z"/>
</g>
<g>
	<path class="st0" d="M363.064,518.48h3.311c1.967,0,3.19,1.115,3.19,2.807v0.023c0,1.883-1.512,2.866-3.358,2.866h-1.667v2.699
		h-1.476V518.48z M366.254,522.846c1.115,0,1.812-0.623,1.812-1.499v-0.023c0-0.984-0.708-1.5-1.812-1.5h-1.715v3.022H366.254z"/>
	<path class="st0" d="M370.959,518.48h3.742c1.056,0,1.883,0.312,2.423,0.84c0.443,0.455,0.695,1.079,0.695,1.811v0.024
		c0,1.379-0.827,2.206-1.99,2.542l2.267,3.179h-1.751l-2.063-2.927h-1.847v2.927h-1.476V518.48z M374.594,522.642
		c1.055,0,1.727-0.551,1.727-1.402v-0.024c0-0.899-0.647-1.392-1.739-1.392h-2.146v2.818H374.594z"/>
	<path class="st0" d="M379.515,518.48h6.225v1.319h-4.749v2.183h4.21v1.319h-4.21v2.255h4.81v1.319h-6.285V518.48z"/>
	<path class="st0" d="M387.435,518.48h3.131c2.639,0,4.461,1.811,4.461,4.174v0.023c0,2.363-1.822,4.198-4.461,4.198h-3.131V518.48z
		 M388.911,519.823v5.709h1.655c1.763,0,2.914-1.188,2.914-2.83v-0.024c0-1.643-1.151-2.854-2.914-2.854H388.911z"/>
	<path class="st0" d="M396.783,518.48h1.476v8.396h-1.476V518.48z"/>
	<path class="st0" d="M400.012,522.702v-0.024c0-2.387,1.786-4.341,4.329-4.341c1.547,0,2.482,0.539,3.286,1.307l-0.947,1.092
		c-0.672-0.624-1.392-1.044-2.351-1.044c-1.596,0-2.771,1.319-2.771,2.963v0.023c0,1.644,1.163,2.975,2.771,2.975
		c1.031,0,1.691-0.407,2.41-1.079l0.948,0.959c-0.876,0.912-1.835,1.487-3.406,1.487
		C401.834,527.02,400.012,525.112,400.012,522.702z"/>
	<path class="st0" d="M411.182,519.848h-2.663v-1.367h6.812v1.367h-2.662v7.028h-1.487V519.848z"/>
	<path class="st0" d="M416.858,518.48h1.476v8.396h-1.476V518.48z"/>
	<path class="st0" d="M419.738,518.48h1.632l2.53,6.452l2.519-6.452h1.596l-3.479,8.455h-1.308L419.738,518.48z"/>
	<path class="st0" d="M429.338,518.48h6.225v1.319h-4.749v2.183h4.21v1.319h-4.21v2.255h4.81v1.319h-6.285V518.48z"/>
	<path class="st0" d="M389.144,532.82h1.367l3.694,8.455h-1.56l-0.852-2.026h-3.97l-0.863,2.026h-1.512L389.144,532.82z
		 M391.255,537.941l-1.451-3.358l-1.439,3.358H391.255z"/>
	<path class="st0" d="M395.529,532.88h1.367l4.498,5.806v-5.806h1.451v8.396h-1.235l-4.63-5.973v5.973h-1.451V532.88z"/>
	<path class="st0" d="M404.888,532.88h3.131c2.639,0,4.46,1.812,4.46,4.174v0.024c0,2.362-1.822,4.197-4.46,4.197h-3.131V532.88z
		 M406.364,534.224v5.709h1.655c1.763,0,2.914-1.188,2.914-2.831v-0.023c0-1.644-1.151-2.854-2.914-2.854H406.364z"/>
	<path class="st0" d="M355.69,547.28H359c1.967,0,3.19,1.115,3.19,2.807v0.023c0,1.883-1.512,2.866-3.358,2.866h-1.667v2.699h-1.476
		V547.28z M358.88,551.646c1.115,0,1.812-0.623,1.812-1.499v-0.023c0-0.984-0.708-1.5-1.812-1.5h-1.715v3.022H358.88z"/>
	<path class="st0" d="M363.585,547.28h3.742c1.056,0,1.883,0.312,2.423,0.84c0.443,0.455,0.695,1.079,0.695,1.811v0.024
		c0,1.379-0.827,2.206-1.991,2.542l2.268,3.179h-1.751l-2.063-2.927h-1.847v2.927h-1.476V547.28z M367.22,551.441
		c1.055,0,1.727-0.551,1.727-1.402v-0.024c0-0.899-0.647-1.392-1.739-1.392h-2.146v2.818H367.22z"/>
	<path class="st0" d="M372.141,547.28h6.225v1.319h-4.749v2.183h4.21v1.319h-4.21v2.255h4.81v1.319h-6.285V547.28z"/>
	<path class="st0" d="M379.498,554.452l0.888-1.056c0.804,0.696,1.619,1.092,2.65,1.092c0.911,0,1.487-0.432,1.487-1.056v-0.023
		c0-0.6-0.336-0.924-1.895-1.283c-1.787-0.433-2.795-0.96-2.795-2.507v-0.024c0-1.439,1.199-2.435,2.866-2.435
		c1.224,0,2.195,0.372,3.047,1.056l-0.792,1.115c-0.756-0.563-1.511-0.863-2.278-0.863c-0.864,0-1.367,0.443-1.367,0.995v0.024
		c0,0.647,0.384,0.936,2.003,1.319c1.774,0.432,2.687,1.067,2.687,2.458v0.024c0,1.571-1.235,2.507-2.999,2.507
		C381.716,555.796,380.505,555.352,379.498,554.452z"/>
	<path class="st0" d="M387.25,551.502v-0.024c0-2.387,1.787-4.341,4.329-4.341c1.547,0,2.482,0.539,3.286,1.307l-0.947,1.092
		c-0.672-0.624-1.392-1.044-2.351-1.044c-1.596,0-2.771,1.319-2.771,2.963v0.023c0,1.644,1.163,2.975,2.771,2.975
		c1.031,0,1.69-0.407,2.41-1.079l0.948,0.959c-0.876,0.912-1.835,1.487-3.406,1.487C389.072,555.819,387.25,553.912,387.25,551.502z
		"/>
	<path class="st0" d="M396.357,547.28h3.742c1.056,0,1.883,0.312,2.423,0.84c0.443,0.455,0.695,1.079,0.695,1.811v0.024
		c0,1.379-0.827,2.206-1.991,2.542l2.268,3.179h-1.751l-2.063-2.927h-1.847v2.927h-1.476V547.28z M399.992,551.441
		c1.055,0,1.727-0.551,1.727-1.402v-0.024c0-0.899-0.647-1.392-1.739-1.392h-2.146v2.818H399.992z"/>
	<path class="st0" d="M404.997,547.28h1.476v8.396h-1.476V547.28z"/>
	<path class="st0" d="M408.596,547.28h3.31c1.967,0,3.19,1.115,3.19,2.807v0.023c0,1.883-1.512,2.866-3.358,2.866h-1.667v2.699
		h-1.476V547.28z M411.786,551.646c1.115,0,1.812-0.623,1.812-1.499v-0.023c0-0.984-0.708-1.5-1.812-1.5h-1.714v3.022H411.786z"/>
	<path class="st0" d="M418.555,548.647h-2.663v-1.367h6.812v1.367h-2.662v7.028h-1.487V548.647z"/>
	<path class="st0" d="M424.231,547.28h1.476v8.396h-1.476V547.28z"/>
	<path class="st0" d="M427.111,547.28h1.632l2.53,6.452l2.519-6.452h1.596l-3.479,8.455h-1.308L427.111,547.28z"/>
	<path class="st0" d="M436.711,547.28h6.225v1.319h-4.749v2.183h4.21v1.319h-4.21v2.255h4.81v1.319h-6.285V547.28z"/>
	<path class="st0" d="M377.126,563.048h-2.663v-1.367h6.812v1.367h-2.662v7.028h-1.487V563.048z"/>
	<path class="st0" d="M382.719,561.681h3.742c1.056,0,1.883,0.312,2.423,0.84c0.443,0.455,0.695,1.079,0.695,1.811v0.024
		c0,1.379-0.827,2.206-1.99,2.542l2.267,3.179h-1.751l-2.063-2.927h-1.847v2.927h-1.476V561.681z M386.354,565.842
		c1.055,0,1.727-0.551,1.727-1.402v-0.024c0-0.899-0.647-1.392-1.739-1.392h-2.146v2.818H386.354z"/>
	<path class="st0" d="M391.275,561.681h6.225V563h-4.749v2.183h4.21v1.319h-4.21v2.255h4.81v1.319h-6.285V561.681z"/>
	<path class="st0" d="M399.195,561.681h1.367l4.498,5.805v-5.805h1.451v8.396h-1.235l-4.63-5.973v5.973h-1.451V561.681z"/>
	<path class="st0" d="M408.554,561.681h3.13c2.639,0,4.461,1.811,4.461,4.174v0.023c0,2.363-1.822,4.198-4.461,4.198h-3.13V561.681z
		 M410.03,563.023v5.709h1.655c1.763,0,2.914-1.188,2.914-2.83v-0.024c0-1.643-1.151-2.854-2.914-2.854H410.03z"/>
	<path class="st0" d="M417.135,568.853l0.888-1.056c0.804,0.696,1.619,1.092,2.65,1.092c0.911,0,1.487-0.432,1.487-1.056v-0.023
		c0-0.6-0.336-0.924-1.896-1.283c-1.786-0.433-2.794-0.96-2.794-2.507v-0.024c0-1.439,1.199-2.435,2.866-2.435
		c1.224,0,2.195,0.372,3.047,1.056l-0.792,1.115c-0.756-0.563-1.511-0.863-2.278-0.863c-0.864,0-1.367,0.443-1.367,0.995v0.024
		c0,0.647,0.384,0.936,2.003,1.319c1.774,0.432,2.687,1.067,2.687,2.458v0.024c0,1.571-1.235,2.507-2.999,2.507
		C419.354,570.196,418.143,569.752,417.135,568.853z"/>
	<path class="st0" d="M372.794,576.021h1.367l3.694,8.455h-1.56l-0.852-2.026h-3.97l-0.863,2.026H369.1L372.794,576.021z
		 M374.906,581.142l-1.451-3.358l-1.439,3.358H374.906z"/>
	<path class="st0" d="M379.179,576.08h1.367l4.498,5.806v-5.806h1.451v8.396h-1.235l-4.63-5.973v5.973h-1.451V576.08z"/>
	<path class="st0" d="M391.513,576.021h1.367l3.694,8.455h-1.56l-0.852-2.026h-3.97l-0.863,2.026h-1.512L391.513,576.021z
		 M393.625,581.142l-1.451-3.358l-1.439,3.358H393.625z"/>
	<path class="st0" d="M397.898,576.08h1.476v7.053h4.413v1.343h-5.889V576.08z"/>
	<path class="st0" d="M406.117,581.166l-3.334-5.086h1.751l2.339,3.706l2.375-3.706h1.69l-3.334,5.05v3.346h-1.487V581.166z"/>
	<path class="st0" d="M411.135,583.253l0.888-1.056c0.804,0.695,1.619,1.091,2.65,1.091c0.911,0,1.487-0.432,1.487-1.055v-0.024
		c0-0.6-0.336-0.924-1.896-1.283c-1.786-0.432-2.794-0.959-2.794-2.507v-0.023c0-1.439,1.199-2.435,2.866-2.435
		c1.224,0,2.195,0.371,3.047,1.055l-0.792,1.115c-0.756-0.563-1.511-0.863-2.278-0.863c-0.864,0-1.367,0.444-1.367,0.996v0.023
		c0,0.647,0.384,0.936,2.003,1.319c1.774,0.432,2.687,1.067,2.687,2.459v0.023c0,1.571-1.235,2.507-2.999,2.507
		C413.354,584.596,412.143,584.152,411.135,583.253z"/>
	<path class="st0" d="M419.342,576.08h1.476v8.396h-1.476V576.08z"/>
	<path class="st0" d="M422.378,583.253l0.888-1.056c0.804,0.695,1.619,1.091,2.65,1.091c0.911,0,1.487-0.432,1.487-1.055v-0.024
		c0-0.6-0.336-0.924-1.895-1.283c-1.787-0.432-2.795-0.959-2.795-2.507v-0.023c0-1.439,1.199-2.435,2.866-2.435
		c1.224,0,2.195,0.371,3.047,1.055l-0.792,1.115c-0.756-0.563-1.511-0.863-2.278-0.863c-0.864,0-1.367,0.444-1.367,0.996v0.023
		c0,0.647,0.384,0.936,2.003,1.319c1.774,0.432,2.687,1.067,2.687,2.459v0.023c0,1.571-1.235,2.507-2.999,2.507
		C424.597,584.596,423.386,584.152,422.378,583.253z"/>
</g>
<g>
	<path class="st0" d="M491.189,493.376h3.742c1.056,0,1.883,0.312,2.423,0.84c0.443,0.456,0.695,1.079,0.695,1.812v0.023
		c0,1.379-0.827,2.207-1.991,2.543l2.268,3.178h-1.751l-2.063-2.926h-1.847v2.926h-1.476V493.376z M494.824,497.537
		c1.055,0,1.727-0.551,1.727-1.402v-0.024c0-0.899-0.647-1.392-1.739-1.392h-2.146v2.818H494.824z"/>
	<path class="st0" d="M499.829,493.376h1.476v8.396h-1.476V493.376z"/>
	<path class="st0" d="M502.865,500.549l0.888-1.057c0.804,0.696,1.619,1.092,2.65,1.092c0.911,0,1.487-0.432,1.487-1.055v-0.024
		c0-0.6-0.336-0.924-1.895-1.283c-1.787-0.433-2.795-0.96-2.795-2.507v-0.023c0-1.439,1.199-2.436,2.866-2.436
		c1.224,0,2.195,0.372,3.047,1.056l-0.792,1.115c-0.756-0.563-1.511-0.863-2.278-0.863c-0.864,0-1.367,0.444-1.367,0.995v0.024
		c0,0.647,0.384,0.936,2.003,1.319c1.774,0.432,2.687,1.067,2.687,2.459v0.023c0,1.571-1.235,2.507-2.999,2.507
		C505.084,501.892,503.873,501.447,502.865,500.549z"/>
	<path class="st0" d="M510.988,493.376h1.476v4.222l3.994-4.222h1.822l-3.502,3.61l3.658,4.785h-1.799l-2.866-3.777l-1.308,1.343
		v2.435h-1.476V493.376z"/>
	<path class="st0" d="M526.035,493.316h1.367l3.694,8.455h-1.56l-0.852-2.027h-3.97l-0.863,2.027h-1.512L526.035,493.316z
		 M528.146,498.438l-1.451-3.358l-1.439,3.358H528.146z"/>
	<path class="st0" d="M532.42,493.376h1.367l4.498,5.805v-5.805h1.451v8.396h-1.235l-4.63-5.973v5.973h-1.451V493.376z"/>
	<path class="st0" d="M541.779,493.376h3.131c2.639,0,4.461,1.812,4.461,4.174v0.024c0,2.362-1.822,4.197-4.461,4.197h-3.131
		V493.376z M543.255,494.719v5.709h1.655c1.763,0,2.914-1.188,2.914-2.83v-0.023c0-1.644-1.151-2.855-2.914-2.855H543.255z"/>
	<path class="st0" d="M554.522,493.376h1.476v7.052h4.413v1.344h-5.889V493.376z"/>
	<path class="st0" d="M560.979,497.598v-0.023c0-2.363,1.822-4.342,4.401-4.342c2.578,0,4.377,1.955,4.377,4.317v0.024
		c0,2.362-1.822,4.342-4.401,4.342C562.778,501.916,560.979,499.961,560.979,497.598z M568.211,497.598v-0.023
		c0-1.631-1.188-2.986-2.854-2.986s-2.83,1.331-2.83,2.962v0.024c0,1.631,1.188,2.975,2.854,2.975S568.211,499.229,568.211,497.598z
		"/>
	<path class="st0" d="M570.807,500.549l0.888-1.057c0.804,0.696,1.619,1.092,2.65,1.092c0.911,0,1.487-0.432,1.487-1.055v-0.024
		c0-0.6-0.336-0.924-1.895-1.283c-1.787-0.433-2.795-0.96-2.795-2.507v-0.023c0-1.439,1.199-2.436,2.866-2.436
		c1.224,0,2.195,0.372,3.047,1.056l-0.792,1.115c-0.756-0.563-1.511-0.863-2.278-0.863c-0.864,0-1.367,0.444-1.367,0.995v0.024
		c0,0.647,0.384,0.936,2.003,1.319c1.774,0.432,2.687,1.067,2.687,2.459v0.023c0,1.571-1.235,2.507-2.999,2.507
		C573.025,501.892,571.814,501.447,570.807,500.549z"/>
	<path class="st0" d="M578.246,500.549l0.888-1.057c0.804,0.696,1.619,1.092,2.65,1.092c0.911,0,1.487-0.432,1.487-1.055v-0.024
		c0-0.6-0.336-0.924-1.895-1.283c-1.787-0.433-2.795-0.96-2.795-2.507v-0.023c0-1.439,1.199-2.436,2.866-2.436
		c1.224,0,2.195,0.372,3.047,1.056l-0.792,1.115c-0.756-0.563-1.511-0.863-2.278-0.863c-0.864,0-1.367,0.444-1.367,0.995v0.024
		c0,0.647,0.384,0.936,2.003,1.319c1.774,0.432,2.687,1.067,2.687,2.459v0.023c0,1.571-1.235,2.507-2.999,2.507
		C580.465,501.892,579.254,501.447,578.246,500.549z"/>
	<path class="st0" d="M500.363,507.775h3.311c1.967,0,3.19,1.116,3.19,2.807v0.024c0,1.883-1.512,2.866-3.358,2.866h-1.667v2.699
		h-1.476V507.775z M503.554,512.142c1.115,0,1.812-0.624,1.812-1.499v-0.023c0-0.984-0.708-1.5-1.812-1.5h-1.715v3.022H503.554z"/>
	<path class="st0" d="M508.259,507.775h3.742c1.056,0,1.883,0.312,2.423,0.84c0.443,0.456,0.695,1.08,0.695,1.812v0.024
		c0,1.379-0.827,2.206-1.99,2.542l2.267,3.179h-1.751l-2.063-2.927h-1.847v2.927h-1.476V507.775z M511.894,511.938
		c1.055,0,1.727-0.551,1.727-1.402v-0.024c0-0.899-0.647-1.392-1.739-1.392h-2.146v2.818H511.894z"/>
	<path class="st0" d="M516.814,507.775h6.225v1.32h-4.749v2.183h4.21v1.319h-4.21v2.254h4.81v1.32h-6.285V507.775z"/>
	<path class="st0" d="M524.734,507.775h3.131c2.639,0,4.461,1.812,4.461,4.174v0.024c0,2.362-1.822,4.198-4.461,4.198h-3.131
		V507.775z M526.21,509.119v5.709h1.655c1.763,0,2.914-1.188,2.914-2.83v-0.024c0-1.644-1.151-2.854-2.914-2.854H526.21z"/>
	<path class="st0" d="M534.082,507.775h1.476v8.396h-1.476V507.775z"/>
	<path class="st0" d="M537.312,511.998v-0.024c0-2.387,1.786-4.342,4.329-4.342c1.547,0,2.482,0.54,3.286,1.308l-0.947,1.092
		c-0.672-0.624-1.392-1.044-2.351-1.044c-1.596,0-2.771,1.319-2.771,2.962v0.024c0,1.644,1.163,2.975,2.771,2.975
		c1.031,0,1.691-0.408,2.41-1.079l0.948,0.959c-0.876,0.912-1.835,1.487-3.406,1.487
		C539.134,516.315,537.312,514.408,537.312,511.998z"/>
	<path class="st0" d="M548.481,509.143h-2.663v-1.367h6.812v1.367h-2.662v7.029h-1.487V509.143z"/>
	<path class="st0" d="M554.158,507.775h1.476v8.396h-1.476V507.775z"/>
	<path class="st0" d="M557.387,511.998v-0.024c0-2.362,1.822-4.342,4.401-4.342c2.578,0,4.377,1.955,4.377,4.317v0.024
		c0,2.362-1.822,4.342-4.401,4.342C559.186,516.315,557.387,514.36,557.387,511.998z M564.618,511.998v-0.024
		c0-1.631-1.188-2.986-2.854-2.986s-2.83,1.331-2.83,2.962v0.024c0,1.632,1.188,2.975,2.854,2.975S564.618,513.629,564.618,511.998z
		"/>
	<path class="st0" d="M567.838,507.775h1.367l4.498,5.806v-5.806h1.451v8.396h-1.235l-4.63-5.973v5.973h-1.451V507.775z"/>
</g>
<g>
	<path class="st0" d="M604.763,374.167h6.249v1.343h-4.773v2.291h4.233v1.343h-4.233v3.418h-1.476V374.167z"/>
	<path class="st0" d="M612.515,374.167h3.742c1.056,0,1.883,0.312,2.423,0.84c0.443,0.456,0.695,1.079,0.695,1.811v0.024
		c0,1.379-0.827,2.207-1.99,2.542l2.267,3.178H617.9l-2.063-2.926h-1.847v2.926h-1.476V374.167z M616.149,378.328
		c1.055,0,1.727-0.551,1.727-1.403v-0.024c0-0.899-0.647-1.391-1.739-1.391h-2.146v2.818H616.149z"/>
	<path class="st0" d="M624.045,374.106h1.367l3.694,8.456h-1.56l-0.852-2.027h-3.97l-0.863,2.027h-1.512L624.045,374.106z
		 M626.156,379.228l-1.451-3.358l-1.439,3.358H626.156z"/>
	<path class="st0" d="M629.998,379v-4.833h1.476v4.773c0,1.559,0.804,2.387,2.123,2.387c1.307,0,2.11-0.779,2.11-2.327v-4.833h1.476
		v4.762c0,2.506-1.415,3.766-3.61,3.766C631.39,382.694,629.998,381.435,629.998,379z"/>
	<path class="st0" d="M639.094,374.167h3.131c2.639,0,4.461,1.811,4.461,4.174v0.024c0,2.363-1.822,4.198-4.461,4.198h-3.131
		V374.167z M640.569,375.51v5.709h1.655c1.763,0,2.914-1.188,2.914-2.831v-0.024c0-1.643-1.151-2.854-2.914-2.854H640.569z"/>
	<path class="st0" d="M585.767,388.566h1.571l2.555,3.97l2.555-3.97h1.571v8.396h-1.476v-6.021l-2.65,3.958h-0.048l-2.627-3.934
		v5.997h-1.451V388.566z"/>
	<path class="st0" d="M595.691,392.788v-0.024c0-2.363,1.822-4.342,4.401-4.342c2.578,0,4.377,1.955,4.377,4.318v0.024
		c0,2.363-1.822,4.342-4.401,4.342C597.49,397.106,595.691,395.151,595.691,392.788z M602.923,392.788v-0.024
		c0-1.631-1.188-2.986-2.854-2.986s-2.83,1.331-2.83,2.962v0.024c0,1.631,1.188,2.975,2.854,2.975S602.923,394.419,602.923,392.788z
		"/>
	<path class="st0" d="M606.143,388.566h1.367l4.498,5.805v-5.805h1.451v8.396h-1.235l-4.63-5.973v5.973h-1.451V388.566z"/>
	<path class="st0" d="M615.586,388.566h1.476v8.396h-1.476V388.566z"/>
	<path class="st0" d="M621.249,389.934h-2.663v-1.367h6.812v1.367h-2.662v7.028h-1.487V389.934z"/>
	<path class="st0" d="M626.016,392.788v-0.024c0-2.363,1.822-4.342,4.401-4.342c2.578,0,4.377,1.955,4.377,4.318v0.024
		c0,2.363-1.822,4.342-4.401,4.342C627.814,397.106,626.016,395.151,626.016,392.788z M633.247,392.788v-0.024
		c0-1.631-1.188-2.986-2.854-2.986s-2.83,1.331-2.83,2.962v0.024c0,1.631,1.188,2.975,2.854,2.975S633.247,394.419,633.247,392.788z
		"/>
	<path class="st0" d="M636.467,388.566h3.742c1.056,0,1.883,0.312,2.423,0.84c0.443,0.456,0.695,1.079,0.695,1.811v0.024
		c0,1.379-0.827,2.207-1.991,2.542l2.268,3.178h-1.751l-2.063-2.926h-1.847v2.926h-1.476V388.566z M640.102,392.728
		c1.055,0,1.727-0.551,1.727-1.403v-0.024c0-0.9-0.647-1.392-1.739-1.392h-2.146v2.818H640.102z"/>
	<path class="st0" d="M645.106,388.566h1.476v8.396h-1.476V388.566z"/>
	<path class="st0" d="M648.706,388.566h1.367l4.498,5.805v-5.805h1.451v8.396h-1.235l-4.63-5.973v5.973h-1.451V388.566z"/>
	<path class="st0" d="M657.694,392.788v-0.024c0-2.351,1.799-4.342,4.329-4.342c1.463,0,2.363,0.408,3.227,1.14l-0.936,1.115
		c-0.647-0.552-1.283-0.899-2.351-0.899c-1.548,0-2.723,1.355-2.723,2.962v0.024c0,1.727,1.14,2.999,2.854,2.999
		c0.791,0,1.511-0.252,2.026-0.636v-1.571h-2.146v-1.283h3.574v3.526c-0.828,0.708-2.015,1.308-3.502,1.308
		C659.421,397.106,657.694,395.235,657.694,392.788z"/>
</g>
<g>
	<path class="st0" d="M584.622,228.778h3.131c2.639,0,4.461,1.811,4.461,4.174v0.024c0,2.363-1.822,4.198-4.461,4.198h-3.131
		V228.778z M586.098,230.122v5.709h1.655c1.763,0,2.914-1.188,2.914-2.831v-0.024c0-1.643-1.151-2.854-2.914-2.854H586.098z"/>
	<path class="st0" d="M593.886,228.778h6.225v1.319h-4.749v2.183h4.21v1.319h-4.21v2.255h4.81v1.319h-6.285V228.778z"/>
	<path class="st0" d="M601.806,228.778h6.249v1.343h-4.773v2.291h4.233v1.343h-4.233v3.418h-1.476V228.778z"/>
	<path class="st0" d="M611.572,228.718h1.367l3.694,8.456h-1.56l-0.852-2.027h-3.97l-0.863,2.027h-1.512L611.572,228.718z
		 M613.684,233.84l-1.451-3.358l-1.439,3.358H613.684z"/>
	<path class="st0" d="M617.525,233.612v-4.833h1.476v4.773c0,1.559,0.804,2.387,2.123,2.387c1.307,0,2.11-0.779,2.11-2.327v-4.833
		h1.476v4.762c0,2.506-1.416,3.766-3.61,3.766C618.917,237.306,617.525,236.046,617.525,233.612z"/>
	<path class="st0" d="M626.622,228.778h1.476v7.052h4.413v1.343h-5.889V228.778z"/>
	<path class="st0" d="M634.793,230.146h-2.663v-1.367h6.812v1.367h-2.662v7.028h-1.487V230.146z"/>
	<path class="st0" d="M643.865,228.778h3.742c1.056,0,1.883,0.312,2.423,0.84c0.443,0.456,0.695,1.079,0.695,1.811v0.024
		c0,1.379-0.827,2.207-1.99,2.542l2.267,3.178h-1.751l-2.063-2.926h-1.847v2.926h-1.476V228.778z M647.5,232.94
		c1.055,0,1.727-0.551,1.727-1.403v-0.024c0-0.899-0.647-1.391-1.739-1.391h-2.146v2.818H647.5z"/>
	<path class="st0" d="M652.505,228.778h1.476v8.396h-1.476V228.778z"/>
	<path class="st0" d="M655.541,235.951l0.888-1.056c0.804,0.696,1.619,1.091,2.65,1.091c0.911,0,1.487-0.432,1.487-1.055v-0.024
		c0-0.6-0.336-0.924-1.896-1.283c-1.786-0.432-2.794-0.96-2.794-2.507v-0.024c0-1.439,1.199-2.435,2.866-2.435
		c1.224,0,2.195,0.372,3.047,1.055l-0.792,1.115c-0.756-0.563-1.511-0.863-2.278-0.863c-0.864,0-1.367,0.444-1.367,0.996v0.024
		c0,0.647,0.384,0.936,2.003,1.319c1.774,0.432,2.687,1.067,2.687,2.458v0.024c0,1.571-1.235,2.507-2.999,2.507
		C657.76,237.294,656.549,236.85,655.541,235.951z"/>
	<path class="st0" d="M663.664,228.778h1.476V233l3.994-4.222h1.822l-3.502,3.61l3.658,4.785h-1.799l-2.866-3.778l-1.308,1.343
		v2.435h-1.476V228.778z"/>
	<path class="st0" d="M594.84,243.178h1.571l2.555,3.97l2.555-3.97h1.571v8.396h-1.476v-6.021l-2.65,3.958h-0.048l-2.627-3.934
		v5.997h-1.451V243.178z"/>
	<path class="st0" d="M604.765,247.4v-0.024c0-2.363,1.822-4.342,4.401-4.342c2.578,0,4.377,1.955,4.377,4.318v0.024
		c0,2.363-1.822,4.342-4.401,4.342C606.563,251.718,604.765,249.763,604.765,247.4z M611.996,247.4v-0.024
		c0-1.631-1.188-2.986-2.854-2.986s-2.83,1.331-2.83,2.962v0.024c0,1.631,1.188,2.975,2.854,2.975S611.996,249.031,611.996,247.4z"
		/>
	<path class="st0" d="M615.216,243.178h3.131c2.639,0,4.461,1.811,4.461,4.174v0.024c0,2.363-1.822,4.198-4.461,4.198h-3.131
		V243.178z M616.691,244.521v5.709h1.655c1.763,0,2.914-1.188,2.914-2.831v-0.024c0-1.643-1.151-2.854-2.914-2.854H616.691z"/>
	<path class="st0" d="M624.479,243.178h6.225v1.319h-4.749v2.183h4.21V248h-4.21v2.255h4.81v1.319h-6.285V243.178z"/>
	<path class="st0" d="M632.399,243.178h1.476v7.052h4.413v1.343h-5.889V243.178z"/>
	<path class="st0" d="M639.792,243.178h1.476v8.396h-1.476V243.178z"/>
	<path class="st0" d="M643.392,243.178h1.367l4.498,5.805v-5.805h1.451v8.396h-1.235l-4.63-5.973v5.973h-1.451V243.178z"/>
	<path class="st0" d="M652.38,247.4v-0.024c0-2.351,1.799-4.342,4.329-4.342c1.463,0,2.363,0.408,3.227,1.14L659,245.289
		c-0.647-0.552-1.283-0.899-2.351-0.899c-1.548,0-2.723,1.355-2.723,2.962v0.024c0,1.727,1.14,2.999,2.854,2.999
		c0.791,0,1.511-0.252,2.026-0.636v-1.571h-2.146v-1.283h3.574v3.526c-0.828,0.708-2.015,1.308-3.502,1.308
		C654.106,251.718,652.38,249.847,652.38,247.4z"/>
</g>
<g>
	<path class="st0" d="M501.121,117.217v-0.024c0-2.387,1.787-4.341,4.329-4.341c1.547,0,2.482,0.54,3.286,1.307l-0.947,1.091
		c-0.672-0.624-1.392-1.043-2.351-1.043c-1.596,0-2.771,1.319-2.771,2.962v0.024c0,1.643,1.163,2.975,2.771,2.975
		c1.031,0,1.69-0.408,2.41-1.08l0.948,0.959c-0.876,0.912-1.835,1.487-3.406,1.487C502.943,121.535,501.121,119.628,501.121,117.217
		z"/>
	<path class="st0" d="M510.228,112.996h3.742c1.056,0,1.883,0.312,2.423,0.84c0.443,0.456,0.695,1.079,0.695,1.811v0.024
		c0,1.379-0.827,2.207-1.99,2.542l2.267,3.178h-1.751l-2.063-2.926h-1.847v2.926h-1.476V112.996z M513.862,117.157
		c1.055,0,1.727-0.551,1.727-1.403v-0.024c0-0.899-0.647-1.391-1.739-1.391h-2.146v2.818H513.862z"/>
	<path class="st0" d="M518.783,112.996h6.225v1.319h-4.749v2.183h4.21v1.319h-4.21v2.255h4.81v1.319h-6.285V112.996z"/>
	<path class="st0" d="M526.703,112.996h3.131c2.639,0,4.461,1.811,4.461,4.174v0.024c0,2.363-1.822,4.198-4.461,4.198h-3.131
		V112.996z M528.179,114.339v5.709h1.655c1.763,0,2.914-1.188,2.914-2.831v-0.024c0-1.643-1.151-2.854-2.914-2.854H528.179z"/>
	<path class="st0" d="M536.051,112.996h1.476v8.396h-1.476V112.996z"/>
	<path class="st0" d="M541.715,114.363h-2.663v-1.367h6.812v1.367h-2.662v7.028h-1.487V114.363z"/>
	<path class="st0" d="M550.787,112.996h3.742c1.056,0,1.883,0.312,2.423,0.84c0.443,0.456,0.695,1.079,0.695,1.811v0.024
		c0,1.379-0.827,2.207-1.991,2.542l2.268,3.178h-1.751l-2.063-2.926h-1.847v2.926h-1.476V112.996z M554.422,117.157
		c1.055,0,1.727-0.551,1.727-1.403v-0.024c0-0.899-0.647-1.391-1.739-1.391h-2.146v2.818H554.422z"/>
	<path class="st0" d="M559.427,112.996h1.476v8.396h-1.476V112.996z"/>
	<path class="st0" d="M562.463,120.168l0.888-1.056c0.804,0.696,1.619,1.091,2.65,1.091c0.911,0,1.487-0.432,1.487-1.055v-0.024
		c0-0.6-0.336-0.924-1.895-1.283c-1.787-0.432-2.795-0.96-2.795-2.507v-0.024c0-1.439,1.199-2.435,2.866-2.435
		c1.224,0,2.195,0.372,3.047,1.055l-0.792,1.115c-0.756-0.563-1.511-0.863-2.278-0.863c-0.864,0-1.367,0.444-1.367,0.996v0.024
		c0,0.647,0.384,0.936,2.003,1.319c1.774,0.432,2.687,1.067,2.687,2.458v0.024c0,1.571-1.235,2.507-2.999,2.507
		C564.682,121.511,563.471,121.067,562.463,120.168z"/>
	<path class="st0" d="M570.586,112.996h1.476v4.222l3.994-4.222h1.822l-3.502,3.61l3.658,4.785h-1.799l-2.866-3.778l-1.308,1.343
		v2.435h-1.476V112.996z"/>
	<path class="st0" d="M508.343,127.335h1.367l3.694,8.456h-1.56l-0.852-2.027h-3.97l-0.863,2.027h-1.512L508.343,127.335z
		 M510.454,132.457l-1.451-3.358l-1.439,3.358H510.454z"/>
	<path class="st0" d="M514.728,127.396h1.367l4.498,5.805v-5.805h1.451v8.396h-1.235l-4.63-5.973v5.973h-1.451V127.396z"/>
	<path class="st0" d="M527.062,127.335h1.367l3.694,8.456h-1.56l-0.852-2.027h-3.97l-0.863,2.027h-1.512L527.062,127.335z
		 M529.173,132.457l-1.451-3.358l-1.439,3.358H529.173z"/>
	<path class="st0" d="M533.446,127.396h1.476v7.052h4.413v1.343h-5.889V127.396z"/>
	<path class="st0" d="M541.665,132.481l-3.334-5.085h1.751l2.339,3.706l2.375-3.706h1.69l-3.334,5.049v3.346h-1.487V132.481z"/>
	<path class="st0" d="M549.73,128.763h-2.663v-1.367h6.812v1.367h-2.662v7.028h-1.487V128.763z"/>
	<path class="st0" d="M555.407,127.396h1.476v8.396h-1.476V127.396z"/>
	<path class="st0" d="M558.636,131.617v-0.024c0-2.387,1.786-4.342,4.329-4.342c1.547,0,2.482,0.54,3.286,1.308l-0.947,1.091
		c-0.672-0.624-1.392-1.043-2.351-1.043c-1.596,0-2.771,1.319-2.771,2.962v0.024c0,1.643,1.163,2.975,2.771,2.975
		c1.031,0,1.691-0.408,2.41-1.08l0.948,0.959c-0.876,0.912-1.835,1.487-3.406,1.487
		C560.458,135.935,558.636,134.028,558.636,131.617z"/>
	<path class="st0" d="M567.179,134.568l0.888-1.056c0.804,0.696,1.619,1.091,2.65,1.091c0.911,0,1.487-0.432,1.487-1.055v-0.024
		c0-0.6-0.336-0.924-1.896-1.284c-1.786-0.432-2.794-0.959-2.794-2.506v-0.024c0-1.439,1.199-2.435,2.866-2.435
		c1.224,0,2.195,0.372,3.047,1.055l-0.792,1.115c-0.756-0.563-1.511-0.863-2.278-0.863c-0.864,0-1.367,0.444-1.367,0.996v0.024
		c0,0.647,0.384,0.936,2.003,1.319c1.774,0.432,2.687,1.067,2.687,2.458v0.024c0,1.571-1.235,2.507-2.999,2.507
		C569.397,135.911,568.187,135.467,567.179,134.568z"/>
</g>
<g>
	<path class="st0" d="M347.195,69.084v-0.024c0-2.387,1.787-4.341,4.329-4.341c1.547,0,2.482,0.54,3.286,1.307l-0.947,1.091
		c-0.672-0.624-1.392-1.043-2.351-1.043c-1.596,0-2.771,1.319-2.771,2.962v0.024c0,1.643,1.163,2.975,2.771,2.975
		c1.031,0,1.69-0.408,2.41-1.08l0.948,0.959c-0.876,0.912-1.835,1.487-3.406,1.487C349.017,73.402,347.195,71.495,347.195,69.084z"
		/>
	<path class="st0" d="M359.276,64.803h1.367l3.694,8.456h-1.56l-0.852-2.027h-3.97l-0.863,2.027h-1.512L359.276,64.803z
		 M361.387,69.924l-1.451-3.358l-1.439,3.358H361.387z"/>
	<path class="st0" d="M364.954,72.035l0.888-1.056c0.804,0.696,1.619,1.091,2.65,1.091c0.911,0,1.487-0.432,1.487-1.055v-0.024
		c0-0.6-0.336-0.924-1.896-1.283c-1.786-0.432-2.794-0.96-2.794-2.507v-0.024c0-1.439,1.199-2.435,2.866-2.435
		c1.224,0,2.195,0.372,3.047,1.055l-0.792,1.115c-0.756-0.563-1.511-0.863-2.278-0.863c-0.864,0-1.367,0.444-1.367,0.996v0.024
		c0,0.647,0.384,0.936,2.003,1.319c1.774,0.432,2.687,1.067,2.687,2.458v0.024c0,1.571-1.235,2.507-2.999,2.507
		C367.172,73.378,365.961,72.935,364.954,72.035z"/>
	<path class="st0" d="M373.077,64.863h1.476v3.49h4.006v-3.49h1.475v8.396h-1.475V69.72h-4.006v3.538h-1.476V64.863z"/>
	<path class="st0" d="M385.557,64.863h1.571l2.555,3.97l2.555-3.97h1.571v8.396h-1.476v-6.021l-2.65,3.958h-0.048l-2.627-3.934
		v5.997h-1.451V64.863z"/>
	<path class="st0" d="M395.482,69.084v-0.024c0-2.363,1.822-4.341,4.401-4.341c2.578,0,4.377,1.955,4.377,4.317v0.024
		c0,2.363-1.822,4.342-4.401,4.342C397.281,73.402,395.482,71.447,395.482,69.084z M402.713,69.084v-0.024
		c0-1.631-1.188-2.986-2.854-2.986s-2.83,1.332-2.83,2.962v0.024c0,1.631,1.188,2.975,2.854,2.975S402.713,70.716,402.713,69.084z"
		/>
	<path class="st0" d="M405.933,64.863h3.131c2.638,0,4.46,1.811,4.46,4.174v0.024c0,2.363-1.822,4.198-4.46,4.198h-3.131V64.863z
		 M407.409,66.206v5.709h1.655c1.763,0,2.914-1.188,2.914-2.831v-0.024c0-1.643-1.151-2.854-2.914-2.854H407.409z"/>
	<path class="st0" d="M415.196,64.863h6.225v1.319h-4.749v2.183h4.21v1.319h-4.21v2.255h4.81v1.319h-6.285V64.863z"/>
	<path class="st0" d="M423.116,64.863h1.476v7.052h4.413v1.343h-5.889V64.863z"/>
	<path class="st0" d="M430.508,64.863h1.476v8.396h-1.476V64.863z"/>
	<path class="st0" d="M434.107,64.863h1.367l4.498,5.805v-5.805h1.451v8.396h-1.235l-4.63-5.973v5.973h-1.451V64.863z"/>
	<path class="st0" d="M443.096,69.084v-0.024c0-2.351,1.799-4.341,4.329-4.341c1.463,0,2.363,0.408,3.227,1.139l-0.936,1.115
		c-0.647-0.552-1.283-0.899-2.351-0.899c-1.548,0-2.723,1.355-2.723,2.962v0.024c0,1.727,1.14,2.999,2.854,2.999
		c0.791,0,1.511-0.252,2.026-0.636v-1.571h-2.146v-1.283h3.574v3.526c-0.828,0.708-2.015,1.308-3.502,1.308
		C444.822,73.402,443.096,71.531,443.096,69.084z"/>
	<path class="st0" d="M352.436,79.203h1.367l3.694,8.456h-1.56l-0.852-2.027h-3.97l-0.863,2.027h-1.512L352.436,79.203z
		 M354.547,84.324l-1.451-3.358l-1.439,3.358H354.547z"/>
	<path class="st0" d="M358.821,79.263h1.367l4.498,5.805v-5.805h1.451v8.396h-1.235l-4.63-5.973v5.973h-1.451V79.263z"/>
	<path class="st0" d="M368.18,79.263h3.131c2.639,0,4.461,1.811,4.461,4.174v0.024c0,2.363-1.822,4.198-4.461,4.198h-3.131V79.263z
		 M369.656,80.606v5.709h1.655c1.763,0,2.914-1.188,2.914-2.831V83.46c0-1.643-1.151-2.854-2.914-2.854H369.656z"/>
	<path class="st0" d="M383.898,79.203h1.367l3.694,8.456h-1.56l-0.852-2.027h-3.97l-0.863,2.027h-1.512L383.898,79.203z
		 M386.009,84.324l-1.451-3.358l-1.439,3.358H386.009z"/>
	<path class="st0" d="M390.284,79.263h1.367l4.498,5.805v-5.805h1.451v8.396h-1.235l-4.63-5.973v5.973h-1.451V79.263z"/>
	<path class="st0" d="M402.618,79.203h1.367l3.694,8.456h-1.56l-0.852-2.027h-3.97l-0.863,2.027h-1.512L402.618,79.203z
		 M404.729,84.324l-1.451-3.358l-1.439,3.358H404.729z"/>
	<path class="st0" d="M409.002,79.263h1.476v7.052h4.413v1.343h-5.888V79.263z"/>
	<path class="st0" d="M417.221,84.348l-3.334-5.085h1.751l2.339,3.706l2.375-3.706h1.69l-3.334,5.049v3.346h-1.487V84.348z"/>
	<path class="st0" d="M425.285,80.63h-2.663v-1.367h6.812v1.367h-2.662v7.028h-1.487V80.63z"/>
	<path class="st0" d="M430.962,79.263h1.476v8.396h-1.476V79.263z"/>
	<path class="st0" d="M434.19,83.484V83.46c0-2.387,1.787-4.342,4.329-4.342c1.547,0,2.482,0.54,3.286,1.308l-0.947,1.091
		c-0.672-0.624-1.392-1.043-2.351-1.043c-1.596,0-2.771,1.319-2.771,2.962v0.024c0,1.643,1.163,2.975,2.771,2.975
		c1.031,0,1.69-0.408,2.41-1.08l0.948,0.959c-0.876,0.912-1.835,1.487-3.406,1.487C436.013,87.802,434.19,85.895,434.19,83.484z"/>
	<path class="st0" d="M442.733,86.435l0.888-1.056c0.804,0.696,1.619,1.091,2.65,1.091c0.911,0,1.487-0.432,1.487-1.055v-0.024
		c0-0.6-0.336-0.924-1.895-1.284c-1.787-0.432-2.795-0.959-2.795-2.506v-0.024c0-1.439,1.199-2.435,2.866-2.435
		c1.224,0,2.195,0.372,3.047,1.055l-0.792,1.115c-0.756-0.563-1.511-0.863-2.278-0.863c-0.864,0-1.367,0.444-1.367,0.996v0.024
		c0,0.647,0.384,0.936,2.003,1.319c1.774,0.432,2.687,1.067,2.687,2.458v0.024c0,1.571-1.235,2.507-2.999,2.507
		C444.952,87.778,443.741,87.334,442.733,86.435z"/>
</g>
<g>
	<path class="st12" d="M396.801,465.838c-82.792,0-150.148-67.356-150.148-150.148c0-53.571,28.874-103.469,75.354-130.221
		l2.494,4.333c-44.934,25.863-72.848,74.101-72.848,125.888c0,80.035,65.113,145.148,145.148,145.148
		s145.148-65.113,145.148-145.148s-65.113-145.148-145.148-145.148v-5c82.792,0,150.148,67.356,150.148,150.148
		S479.593,465.838,396.801,465.838z"/>
	<g>
		<polygon class="st12" points="317.821,182.195 332.772,182.61 324.939,195.352 		"/>
	</g>
</g>
</svg>
